<svg version="1.1" id="Layer_1" xmlns="http://www.w3.org/2000/svg" xmlns:xlink="http://www.w3.org/1999/xlink" x="0px" y="0px"
	 width="100%" viewBox="0 0 1254 1254" enable-background="new 0 0 1254 1254" xml:space="preserve">
<path fill="#004EFD" opacity="1.000000" stroke="none" 
	d="
M603.000000,1255.000000 
	C402.000000,1255.000000 201.500000,1255.000000 1.000000,1255.000000 
	C1.000000,837.000000 1.000000,419.000000 1.000000,1.000000 
	C419.000000,1.000000 837.000000,1.000000 1255.000000,1.000000 
	C1255.000000,419.000000 1255.000000,837.000000 1255.000000,1255.000000 
	C1037.833374,1255.000000 820.666687,1255.000000 603.000000,1255.000000 
M322.217102,482.163818 
	C322.217102,482.163818 322.629730,482.273621 322.629730,482.273621 
	C322.629730,482.273621 323.002350,482.045349 323.915802,481.820618 
	C327.581451,481.760040 331.247070,481.646149 334.912720,481.646484 
	C491.398621,481.660156 647.884521,481.694702 804.370422,481.699615 
	C847.530029,481.700958 890.689636,481.617798 934.299744,481.617126 
	C934.632324,481.442139 934.719849,481.184052 934.692810,479.934204 
	C934.692810,424.677673 934.692810,369.421112 934.692810,313.546326 
	C730.225220,313.546326 526.230896,313.546326 321.866791,313.253113 
	C321.721954,313.562500 321.577118,313.871887 321.419403,315.095276 
	C321.425018,370.346863 321.430634,425.598450 321.397736,481.296143 
	C321.397736,481.296143 321.714233,481.612579 321.714233,481.612579 
	C321.714233,481.612579 322.160156,481.574432 322.245026,481.785156 
	C322.245026,481.785156 322.055054,481.909668 322.217102,482.163818 
M321.570282,819.222900 
	C321.559387,819.524475 321.548492,819.826050 321.481781,821.046692 
	C321.481781,878.102234 321.481781,935.157776 321.481781,992.117920 
	C379.336090,992.117920 436.429810,992.117920 494.073517,992.117920 
	C494.073517,989.998840 494.073425,988.211243 494.073517,986.423706 
	C494.074829,955.929626 494.112885,925.435547 494.065979,894.941528 
	C494.027527,869.953369 493.887939,844.965271 493.911774,819.478271 
	C493.615967,819.379028 493.320190,819.279785 492.270416,818.975891 
	C491.494934,818.903931 490.719421,818.831909 489.223572,818.387512 
	C488.072571,818.254517 486.921570,818.005676 485.770538,818.005310 
	C432.793579,817.987854 379.816589,817.984253 326.839661,818.030945 
	C325.230621,818.032410 323.622070,818.583862 322.162354,818.975952 
	C322.162354,818.975952 322.070801,819.128479 321.570282,819.222900 
M321.414276,572.027954 
	C321.414276,625.966064 321.414276,679.904175 321.414276,734.051758 
	C525.972839,734.051758 730.035583,734.051758 934.431396,734.051758 
	C934.431396,678.210388 934.431396,622.684509 934.431396,567.024719 
	C932.025024,566.916870 930.041077,566.827942 927.696777,566.418335 
	C927.111877,566.523071 926.526978,566.627747 925.015686,566.817261 
	C790.190247,566.818359 655.364807,566.828552 520.539368,566.816589 
	C456.377808,566.810852 392.216217,566.762817 327.601593,566.390625 
	C326.716919,566.509949 325.832245,566.629211 324.220886,566.840027 
	C323.498138,566.921204 322.775391,567.002380 321.595673,567.115051 
	C321.494293,567.229126 321.293304,567.361267 321.310181,567.453796 
	C321.360596,567.730469 321.496338,567.991516 321.549500,568.746826 
	C321.533539,569.074646 321.548279,569.401062 321.269989,570.136536 
	C321.345642,570.460327 321.421295,570.784180 321.414276,572.027954 
z"/>
<path fill="#FDFDFD" opacity="1.000000" stroke="none" 
	d="
M933.849243,481.573425 
	C890.689636,481.617798 847.530029,481.700958 804.370422,481.699615 
	C647.884521,481.694702 491.398621,481.660156 334.912720,481.646484 
	C331.247070,481.646149 327.581451,481.760040 323.232269,481.828857 
	C322.548737,481.837128 322.055054,481.909668 322.055054,481.909668 
	C322.055054,481.909668 322.245026,481.785156 322.186035,481.477905 
	C321.974884,480.895416 321.744598,480.788544 321.436218,480.850037 
	C321.430634,425.598450 321.425018,370.346863 321.678772,314.545288 
	C322.037567,313.845642 322.137024,313.695984 322.236511,313.546326 
	C526.230896,313.546326 730.225220,313.546326 934.692810,313.546326 
	C934.692810,369.421112 934.692810,424.677673 934.426147,480.407104 
	C933.886414,481.035278 933.783020,481.266449 933.849243,481.573425 
z"/>
<path fill="#FDFDFD" opacity="1.000000" stroke="none" 
	d="
M322.052643,567.083496 
	C322.775391,567.002380 323.498138,566.921204 324.964722,566.908264 
	C326.490601,566.895630 327.272644,566.814819 328.054657,566.733948 
	C392.216217,566.762817 456.377808,566.810852 520.539368,566.816589 
	C655.364807,566.828552 790.190247,566.818359 925.825562,566.884521 
	C927.109314,566.880920 927.583252,566.809998 928.057129,566.739014 
	C930.041077,566.827942 932.025024,566.916870 934.431396,567.024719 
	C934.431396,622.684509 934.431396,678.210388 934.431396,734.051758 
	C730.035583,734.051758 525.972839,734.051758 321.414276,734.051758 
	C321.414276,679.904175 321.414276,625.966064 321.615936,571.363586 
	C321.742981,570.374817 321.668365,570.050476 321.593750,569.726074 
	C321.548279,569.401062 321.533539,569.074646 321.739685,568.229004 
	C321.970764,567.501953 322.011719,567.292725 322.052643,567.083496 
z"/>
<path fill="#FDFDFD" opacity="1.000000" stroke="none" 
	d="
M493.793182,819.977173 
	C493.887939,844.965271 494.027527,869.953369 494.065979,894.941528 
	C494.112885,925.435547 494.074829,955.929626 494.073517,986.423706 
	C494.073425,988.211243 494.073517,989.998840 494.073517,992.117920 
	C436.429810,992.117920 379.336090,992.117920 321.481781,992.117920 
	C321.481781,935.157776 321.481781,878.102234 321.670624,820.469849 
	C321.977936,819.651489 322.048401,819.396667 322.070801,819.128479 
	C322.070801,819.128479 322.162354,818.975952 322.551544,818.965942 
	C371.135590,818.959656 419.330475,818.972229 467.525330,818.957703 
	C474.998230,818.955444 482.471069,818.828979 489.943939,818.759949 
	C490.719421,818.831909 491.494934,818.903931 492.759094,819.226196 
	C493.409485,819.665405 493.591278,819.832275 493.793182,819.977173 
z"/>
<path fill="#1150FD" opacity="1.000000" stroke="none" 
	d="
M489.583740,818.573730 
	C482.471069,818.828979 474.998230,818.955444 467.525330,818.957703 
	C419.330475,818.972229 371.135590,818.959656 322.476990,818.917419 
	C323.622070,818.583862 325.230621,818.032410 326.839661,818.030945 
	C379.816589,817.984253 432.793579,817.987854 485.770538,818.005310 
	C486.921570,818.005676 488.072571,818.254517 489.583740,818.573730 
z"/>
<path fill="#4183FD" opacity="1.000000" stroke="none" 
	d="
M327.828125,566.562256 
	C327.272644,566.814819 326.490601,566.895630 325.328064,566.862488 
	C325.832245,566.629211 326.716919,566.509949 327.828125,566.562256 
z"/>
<path fill="#4183FD" opacity="1.000000" stroke="none" 
	d="
M927.876953,566.578735 
	C927.583252,566.809998 927.109314,566.880920 926.288757,566.842163 
	C926.526978,566.627747 927.111877,566.523071 927.876953,566.578735 
z"/>
<path fill="#9BB9FB" opacity="1.000000" stroke="none" 
	d="
M322.051636,313.399719 
	C322.137024,313.695984 322.037567,313.845642 321.685181,314.088287 
	C321.577118,313.871887 321.721954,313.562500 322.051636,313.399719 
z"/>
<path fill="#9BB9FB" opacity="1.000000" stroke="none" 
	d="
M321.416992,481.073090 
	C321.744598,480.788544 321.974884,480.895416 322.143585,481.372559 
	C322.160156,481.574432 321.714233,481.612579 321.714233,481.612579 
	C321.714233,481.612579 321.397736,481.296143 321.416992,481.073090 
z"/>
<path fill="#9BB9FB" opacity="1.000000" stroke="none" 
	d="
M934.074463,481.595276 
	C933.783020,481.266449 933.886414,481.035278 934.360840,480.861450 
	C934.719849,481.184052 934.632324,481.442139 934.074463,481.595276 
z"/>
<path fill="#1150FD" opacity="1.000000" stroke="none" 
	d="
M322.136078,482.036743 
	C322.055054,481.909668 322.548737,481.837128 322.775543,481.941223 
	C323.002350,482.045349 322.629730,482.273621 322.629730,482.273621 
	C322.629730,482.273621 322.217102,482.163818 322.136078,482.036743 
z"/>
<path fill="#9BB9FB" opacity="1.000000" stroke="none" 
	d="
M321.824158,567.099243 
	C322.011719,567.292725 321.970764,567.501953 321.764313,567.984863 
	C321.496338,567.991516 321.360596,567.730469 321.310181,567.453796 
	C321.293304,567.361267 321.494293,567.229126 321.824158,567.099243 
z"/>
<path fill="#9BB9FB" opacity="1.000000" stroke="none" 
	d="
M321.431885,569.931274 
	C321.668365,570.050476 321.742981,570.374817 321.657288,570.903564 
	C321.421295,570.784180 321.345642,570.460327 321.431885,569.931274 
z"/>
<path fill="#9BB9FB" opacity="1.000000" stroke="none" 
	d="
M321.820557,819.175659 
	C322.048401,819.396667 321.977936,819.651489 321.698547,820.010376 
	C321.548492,819.826050 321.559387,819.524475 321.820557,819.175659 
z"/>
<path fill="#FDFDFD" opacity="1.000000" stroke="none" 
	d="
M493.852478,819.727722 
	C493.591278,819.832275 493.409485,819.665405 493.136108,819.328613 
	C493.320190,819.279785 493.615967,819.379028 493.852478,819.727722 
z"/>
</svg>